<svg width="459" height="605" viewBox="0 0 459 605" fill="none" xmlns="http://www.w3.org/2000/svg">
<path d="M0 43C0 19.2517 19.2518 0 43 0H296L459 157.5V562C459 585.748 439.748 605 416 605H43C19.2517 605 0 585.748 0 562V43Z" fill="white"/>
<path d="M324.929 172C302.877 172 285 154.22 285 132.287L285 21L363 96.5L441 172L324.929 172Z" fill="white"/>
<path d="M288 7L288 128.605C288 152.572 307.481 172 331.512 172L458 172" stroke="#272727" stroke-width="23"/>
<path d="M0 390H459V562C459 585.748 439.748 605 416 605H43C19.2518 605 0 585.748 0 562V390Z" fill="#FF2116"/>
<path d="M154.717 497.532H130.659V484.9H154.717C158.906 484.9 162.292 484.223 164.873 482.869C167.454 481.515 169.338 479.653 170.522 477.283C171.75 474.871 172.363 472.12 172.363 469.031C172.363 466.111 171.75 463.382 170.522 460.843C169.338 458.261 167.454 456.188 164.873 454.622C162.292 453.056 158.906 452.273 154.717 452.273H135.547V532H119.614V439.578H154.717C161.868 439.578 167.941 440.848 172.935 443.387C177.97 445.883 181.8 449.354 184.424 453.797C187.048 458.198 188.359 463.234 188.359 468.904C188.359 474.871 187.048 479.992 184.424 484.266C181.8 488.54 177.97 491.819 172.935 494.104C167.941 496.39 161.868 497.532 154.717 497.532ZM229.492 532H209.751L209.878 519.368H229.492C235.205 519.368 239.987 518.12 243.838 515.623C247.731 513.126 250.651 509.55 252.598 504.896C254.587 500.241 255.581 494.697 255.581 488.265V483.25C255.581 478.257 255.01 473.834 253.867 469.983C252.767 466.132 251.117 462.895 248.916 460.271C246.758 457.648 244.092 455.659 240.918 454.305C237.786 452.951 234.168 452.273 230.063 452.273H209.37V439.578H230.063C236.2 439.578 241.807 440.615 246.885 442.688C251.963 444.72 256.343 447.661 260.024 451.512C263.748 455.363 266.605 459.975 268.594 465.35C270.583 470.724 271.577 476.733 271.577 483.377V488.265C271.577 494.909 270.583 500.918 268.594 506.292C266.605 511.666 263.748 516.279 260.024 520.13C256.3 523.938 251.857 526.88 246.694 528.953C241.574 530.984 235.84 532 229.492 532ZM218.574 439.578V532H202.642V439.578H218.574ZM303.506 439.578V532H287.573V439.578H303.506ZM341.211 480.013V492.645H299.443V480.013H341.211ZM346.479 439.578V452.273H299.443V439.578H346.479Z" fill="white"/>
<path fill-rule="evenodd" clip-rule="evenodd" d="M212.142 123.017C221.195 122.627 230.317 129.06 233.959 141.828L234.218 142.78C236.772 152.698 235.838 165.09 233.725 177.345C231.601 189.669 228.191 202.323 225.507 212.819C228.259 218.775 233.683 227.129 239.826 235.4C245.842 243.499 252.376 251.287 257.429 256.377C292.122 251.165 312.652 251.671 326.567 258.315L327.029 258.54C336.655 263.333 340.904 271.742 339.842 279.626C338.779 287.504 332.488 294.095 322.778 295.233L322.312 295.282C314.62 296.037 305.028 296.038 293.343 292.46C281.935 288.968 268.684 282.11 253.328 269.453C244.474 270.789 222.012 275.357 195.27 284.602C189.87 293.318 183.444 303.552 176.768 312.946C170.111 322.315 163.059 331.069 156.4 336.647L155.757 337.176C144.704 346.125 134.632 349.442 126.411 348.953C118.172 348.463 111.99 344.123 109.216 338.32L109.154 338.193L109.106 338.062C107.244 332.994 107.789 327.998 110.318 323.168C112.784 318.46 117.116 313.921 122.829 309.4C134.1 300.479 151.636 290.944 173.867 279.878C181.141 265.261 196.821 231.185 205.467 203.516C201.365 193.341 193.197 168.583 194.629 142.486L194.665 141.937C195.521 130.444 203.187 123.403 212.142 123.017ZM161.865 298.878C137.416 310.367 125.729 319.808 121.221 326.376C118.722 330.017 118.79 332.211 119.206 333.27C119.621 334.325 120.818 335.348 123.056 335.699L123.46 335.754C127.678 336.223 133.091 333.852 140.429 326.537C146.56 320.425 153.597 311.297 161.865 298.878ZM303.011 264.679C294.174 263.531 282.246 264.363 268.413 266.432C284.97 277.373 297.558 281.804 305.996 282.441C310.716 282.797 313.858 281.95 315.718 280.72C317.447 279.575 318.279 277.975 318.295 275.99C318.136 272.638 316.805 270.292 314.475 268.539C311.992 266.671 308.194 265.352 303.011 264.679ZM220.158 226.735C213.406 246.083 206.981 261.035 202.854 269.77C221.014 264.371 235.967 260.919 244.558 259.205C234.315 247.103 225.43 234.638 220.158 226.735ZM215.421 136.719C214.398 135.634 213.014 135.142 210.933 135.432C209.563 135.673 208.028 136.896 206.837 140.346C205.662 143.748 205.115 148.601 205.302 154.419C205.598 163.669 207.728 174.807 211.476 185.261C217.032 165.83 218.767 152.911 218.095 144.949C217.713 140.434 216.594 137.964 215.421 136.719Z" fill="#FF2116"/>
<path d="M43 11.5H291.351L447.5 162.38V562C447.5 579.397 433.397 593.5 416 593.5H43C25.603 593.5 11.5 579.397 11.5 562V43C11.5 25.603 25.603 11.5 43 11.5Z" stroke="#272727" stroke-width="23"/>
</svg>
